<svg width="23" height="23" viewBox="0 0 23 23" fill="none" xmlns="http://www.w3.org/2000/svg">
<path d="M21.06 0.735467H2.30511C1.44574 0.735467 0.747498 1.44347 0.747498 2.31262V21.0333C0.747498 21.9025 1.44574 22.6105 2.30511 22.6105H21.06C21.9194 22.6105 22.6225 21.9025 22.6225 21.0333V2.31262C22.6225 1.44347 21.9194 0.735467 21.06 0.735467ZM7.35883 19.4855H4.11664V9.04601H7.36371V19.4855H7.35883ZM5.73773 7.62023C4.69769 7.62023 3.85785 6.77551 3.85785 5.74035C3.85785 4.70519 4.69769 3.86047 5.73773 3.86047C6.77289 3.86047 7.61761 4.70519 7.61761 5.74035C7.61761 6.78039 6.77777 7.62023 5.73773 7.62023ZM19.5121 19.4855H16.27V14.4073C16.27 13.1964 16.2455 11.6388 14.5854 11.6388C12.8959 11.6388 12.6371 12.9571 12.6371 14.3195V19.4855H9.39496V9.04601H12.5053V10.4718H12.5493C12.9838 9.65148 14.0434 8.78722 15.6205 8.78722C18.9018 8.78722 19.5121 10.9503 19.5121 13.7628V19.4855Z" fill="black"/>
</svg>
