<svg width="157" height="152" viewBox="0 0 157 152" fill="none" xmlns="http://www.w3.org/2000/svg">
<rect width="157" height="152" fill="white"/>
<g clip-path="url(#clip0_0_1)">
<g filter="url(#filter0_d_0_1)">
<path d="M70.5 135C107.227 135 137 104.779 137 67.5C137 30.2208 107.227 0 70.5 0C33.7731 0 4 30.2208 4 67.5C4 104.779 33.7731 135 70.5 135Z" fill="#2D2C2D" fill-opacity="0.9"/>
</g>
<g filter="url(#filter1_d_0_1)">
<path d="M151.5 76.5C151.5 112.972 122.377 142.5 86.5 142.5C50.6225 142.5 21.5 112.972 21.5 76.5C21.5 40.028 50.6225 10.5 86.5 10.5C122.377 10.5 151.5 40.028 151.5 76.5Z" stroke="#A19EA2" stroke-width="3"/>
</g>
<path d="M54.64 77C53.872 77 53.072 76.8933 52.24 76.68C51.4293 76.488 50.7467 76.1253 50.192 75.592C49.6373 75.08 49.36 74.344 49.36 73.384C49.36 72.5947 49.5413 71.848 49.904 71.144C50.2667 70.4187 50.7253 69.7573 51.28 69.16C51.856 68.5627 52.4427 68.0507 53.04 67.624C53.232 67.496 53.5413 67.304 53.968 67.048C54.3947 66.792 54.864 66.536 55.376 66.28C55.888 66.024 56.3573 65.8107 56.784 65.64C57.232 65.448 57.5733 65.352 57.808 65.352C57.8507 65.352 57.872 65.3627 57.872 65.384C57.872 65.512 57.744 65.6827 57.488 65.896C57.2533 66.1093 57.0827 66.2373 56.976 66.28C56.8907 66.3013 56.7947 66.3227 56.688 66.344C56.5813 66.344 56.4747 66.3653 56.368 66.408C55.8987 66.5573 55.4187 66.792 54.928 67.112C54.4373 67.4107 54 67.72 53.616 68.04C52.9547 68.616 52.3573 69.3093 51.824 70.12C51.312 70.9307 51.056 71.7947 51.056 72.712C51.056 73.4587 51.2587 74.0987 51.664 74.632C52.0693 75.1653 52.5813 75.5707 53.2 75.848C53.84 76.1467 54.5013 76.296 55.184 76.296C55.696 76.296 56.208 76.232 56.72 76.104C58.2347 75.72 59.6853 75.0267 61.072 74.024C62.48 73.0213 63.8027 71.8267 65.04 70.44C66.2987 69.032 67.4613 67.5387 68.528 65.96C69.5947 64.3813 70.5547 62.8133 71.408 61.256C72.2827 59.6987 73.0293 58.2587 73.648 56.936C73.3067 56.1893 72.8907 55.4213 72.4 54.632C71.9307 53.8213 71.3867 53.0747 70.768 52.392C70.1707 51.7093 69.488 51.1547 68.72 50.728C67.9733 50.28 67.1307 50.056 66.192 50.056C65.1893 50.056 64.3573 50.3333 63.696 50.888C63.0347 51.4213 62.544 52.1147 62.224 52.968C61.904 53.8 61.744 54.664 61.744 55.56C61.744 56.0933 61.7867 56.6267 61.872 57.16C61.9787 57.6933 62.1067 58.2267 62.256 58.76C62.384 59.2293 62.5867 59.784 62.864 60.424C63.1627 61.0427 63.5147 61.6507 63.92 62.248C64.3253 62.8453 64.784 63.3467 65.296 63.752C65.808 64.136 66.352 64.328 66.928 64.328C67.184 64.328 67.3973 64.2853 67.568 64.2C67.76 64.0933 67.9093 64.04 68.016 64.04C68.144 64.04 68.208 64.1147 68.208 64.264C68.208 64.4133 68.0587 64.5413 67.76 64.648C67.4827 64.7547 67.1733 64.84 66.832 64.904C66.512 64.968 66.288 65 66.16 65C65.328 65 64.592 64.7547 63.952 64.264C63.312 63.7733 62.7787 63.1653 62.352 62.44C61.9467 61.7147 61.6373 61 61.424 60.296C61.2747 59.7627 61.1573 59.2293 61.072 58.696C61.008 58.1627 60.976 57.6293 60.976 57.096C60.976 55.5813 61.1893 54.2373 61.616 53.064C62.0427 51.8693 62.7467 50.9307 63.728 50.248C64.7307 49.5653 66.0533 49.224 67.696 49.224C68.848 49.224 69.8507 49.4907 70.704 50.024C71.5573 50.536 72.304 51.208 72.944 52.04C73.6053 52.8507 74.1813 53.7147 74.672 54.632L75.536 52.488C75.6 52.3387 75.6427 52.1893 75.664 52.04C75.7067 51.8907 75.76 51.752 75.824 51.624C75.8667 51.56 75.9307 51.5173 76.016 51.496C76.1013 51.4533 76.176 51.432 76.24 51.432C76.432 51.432 76.528 51.5387 76.528 51.752C76.528 51.9013 76.4747 52.168 76.368 52.552C76.2613 52.9147 76.1333 53.32 75.984 53.768C75.8347 54.216 75.6853 54.632 75.536 55.016C75.408 55.3787 75.312 55.6453 75.248 55.816C75.6747 56.6907 76.08 57.576 76.464 58.472C76.848 59.368 77.2427 60.2533 77.648 61.128C78.3093 62.4933 78.9387 63.88 79.536 65.288C80.1333 66.696 80.752 68.0933 81.392 69.48C82.224 66.792 83.2587 64.1893 84.496 61.672C85.7547 59.1333 87.1947 56.7227 88.816 54.44C89.8827 52.968 91.184 51.752 92.72 50.792C94.2773 49.8107 95.9947 49.32 97.872 49.32C98.2347 49.32 98.6293 49.3627 99.056 49.448C99.4827 49.5333 99.8453 49.6933 100.144 49.928C100.464 50.1413 100.624 50.4827 100.624 50.952C100.624 51.0373 100.592 51.208 100.528 51.464C100.485 51.6987 100.411 51.9227 100.304 52.136C100.219 52.3493 100.123 52.456 100.016 52.456C99.9733 52.456 99.952 52.424 99.952 52.36C99.952 52.2533 99.9733 52.1467 100.016 52.04C100.059 51.912 100.08 51.7947 100.08 51.688C100.08 51.2613 99.8987 50.952 99.536 50.76C99.1733 50.5467 98.7573 50.408 98.288 50.344C97.84 50.28 97.456 50.248 97.136 50.248C96.8587 50.248 96.5707 50.2587 96.272 50.28C95.9947 50.3013 95.7173 50.344 95.44 50.408C94.5013 50.6427 93.5627 51.1973 92.624 52.072C91.7067 52.9467 90.8 54.024 89.904 55.304C89.0293 56.584 88.1973 57.96 87.408 59.432C86.6187 60.904 85.8933 62.376 85.232 63.848C84.5707 65.32 83.984 66.696 83.472 67.976C82.96 69.256 82.544 70.3227 82.224 71.176C82.3947 71.496 82.608 71.9013 82.864 72.392C83.12 72.8827 83.408 73.3733 83.728 73.864C84.048 74.3547 84.4 74.76 84.784 75.08C85.1893 75.4 85.5947 75.56 86 75.56C86.3627 75.56 86.6293 75.4533 86.8 75.24C86.9707 75.048 87.0987 74.8133 87.184 74.536C87.2693 74.2587 87.3333 74.0133 87.376 73.8C87.44 73.608 87.5253 73.512 87.632 73.512C87.7813 73.512 87.856 73.5973 87.856 73.768C87.856 73.832 87.8347 73.9493 87.792 74.12C87.7493 74.2907 87.7173 74.408 87.696 74.472C87.4613 75.1333 87.056 75.6987 86.48 76.168C85.904 76.6373 85.2533 76.872 84.528 76.872C83.7387 76.872 83.0667 76.5307 82.512 75.848C81.8507 75.016 81.2107 74.0453 80.592 72.936C79.9947 71.8267 79.4187 70.664 78.864 69.448C78.3307 68.232 77.8187 67.0267 77.328 65.832C76.8373 64.6373 76.3893 63.5387 75.984 62.536C75.6853 61.8107 75.3867 61.096 75.088 60.392C74.8107 59.6667 74.5227 58.952 74.224 58.248C73.6267 59.592 72.88 61.0427 71.984 62.6C71.1093 64.1573 70.1067 65.7147 68.976 67.272C67.8667 68.808 66.6507 70.248 65.328 71.592C64.0267 72.936 62.6507 74.0667 61.2 74.984C59.7493 75.9227 58.2347 76.5413 56.656 76.84C56.336 76.904 56.0053 76.9467 55.664 76.968C55.3227 76.9893 54.9813 77 54.64 77ZM76.688 68.36C76.6453 68.36 76.592 68.3067 76.528 68.2C76.464 68.072 76.4107 67.9973 76.368 67.976C76.2613 67.784 76.0907 67.5067 75.856 67.144C75.6213 66.7813 75.3547 66.408 75.056 66.024C74.7573 65.64 74.4587 65.32 74.16 65.064C73.8613 64.808 73.5947 64.68 73.36 64.68C73.168 64.68 73.04 64.7547 72.976 64.904C72.912 65.032 72.88 65.1813 72.88 65.352C72.88 65.4373 72.8587 65.4907 72.816 65.512C72.7307 65.4693 72.6773 65.352 72.656 65.16C72.6347 64.9467 72.624 64.7973 72.624 64.712C72.624 64.392 72.72 64.04 72.912 63.656C73.1253 63.272 73.4347 63.08 73.84 63.08C73.968 63.08 74.096 63.112 74.224 63.176C74.352 63.2187 74.4693 63.2827 74.576 63.368C75.216 63.8373 75.6747 64.488 75.952 65.32C76.2507 66.152 76.5067 66.9413 76.72 67.688C76.7413 67.752 76.752 67.816 76.752 67.88C76.7733 67.944 76.784 68.0187 76.784 68.104C76.784 68.1253 76.7733 68.1787 76.752 68.264C76.752 68.328 76.7307 68.36 76.688 68.36Z" fill="white"/>
<path d="M86.0849 84.1694C84.8887 84.1391 83.953 83.7387 83.2778 82.9683C82.5989 82.1768 82.1645 81.2346 81.9746 80.1417C81.9527 80.0156 81.9308 79.8894 81.9089 79.7633C81.8869 79.6372 81.8755 79.5093 81.8746 79.3795C81.7881 77.5107 82.1168 75.8513 82.8609 74.4012C83.6013 72.93 84.6149 71.6604 85.9017 70.5923C87.2058 69.4996 88.6516 68.5987 90.239 67.8898C91.8438 67.1563 93.4481 66.6068 95.0519 66.2415C95.1533 66.2022 95.2566 66.1734 95.3617 66.1552C95.4668 66.1369 95.5719 66.1187 95.677 66.1004C96.6438 65.9324 97.6111 65.8293 98.5788 65.791C99.5466 65.7528 100.514 65.6496 101.481 65.4816C101.649 65.4524 101.806 65.425 101.954 65.3994C102.101 65.3739 102.246 65.3378 102.39 65.2912C102.638 65.2264 102.832 65.1601 102.972 65.0925C103.112 65.0249 103.274 64.8993 103.459 64.7156C103.48 64.712 103.49 64.7102 103.49 64.7102C103.508 64.6855 103.527 64.6713 103.548 64.6677C103.611 64.6567 103.65 64.6933 103.664 64.7774C103.683 64.8824 103.64 65.009 103.535 65.157C103.09 65.7107 102.66 66.1644 102.245 66.518C101.831 66.8716 101.255 67.1123 100.52 67.2401C100.393 67.262 100.257 67.2858 100.11 67.3114C99.98 67.3122 99.8502 67.3131 99.7204 67.314C98.6896 67.3632 97.6662 67.4545 96.65 67.5878C95.6338 67.721 94.6212 67.8753 93.6124 68.0507C92.4774 68.2479 91.3657 68.5169 90.2773 68.8576C89.1889 69.1983 88.1786 69.677 87.2464 70.2937C86.3316 70.8857 85.5428 71.7048 84.8802 72.7511C84.2523 73.748 83.8062 74.919 83.5419 76.2641C83.2776 77.6092 83.2477 78.8703 83.4523 80.0473C83.602 80.909 83.8719 81.6525 84.2621 82.2776C84.6732 82.899 85.2886 83.3875 86.1082 83.7431C86.249 83.8053 86.3266 83.8784 86.3412 83.9625C86.3595 84.0676 86.3056 84.1311 86.1795 84.153L86.0849 84.1694ZM77.4878 103.105C76.7732 103.229 76.0125 103.275 75.2056 103.242C74.4197 103.205 73.6681 103.054 72.9508 102.789C72.2335 102.524 71.6222 102.121 71.1169 101.581C70.6116 101.041 70.2841 100.34 70.1344 99.4783C70.0577 99.0369 70.0545 98.5828 70.125 98.1158C70.178 97.6735 70.2749 97.2344 70.4157 96.7986C70.8289 95.6874 71.4797 94.6974 72.368 93.8285C73.2317 92.9422 74.2014 92.1674 75.2771 91.5041C76.3701 90.8161 77.4306 90.2529 78.4587 89.8144C79.7875 89.2371 81.1697 88.7803 82.6054 88.4443C84.0621 88.1045 85.4945 87.8123 86.9027 87.5676L88.4161 87.3046C88.5842 87.2754 88.6774 87.3133 88.6957 87.4184C88.7322 87.6286 88.649 87.773 88.4461 87.8515L87.6264 87.994C87.2481 88.0597 86.8716 88.136 86.4969 88.2227C86.1396 88.2848 85.7736 88.3592 85.3989 88.446C84.2923 88.6816 83.1824 88.9611 82.0693 89.2844C80.9526 89.5868 79.8715 89.9695 78.826 90.4327C78.1022 90.7533 77.3003 91.185 76.4202 91.7277C75.5365 92.2494 74.713 92.8688 73.9499 93.5861C73.2041 94.2786 72.6219 95.0402 72.2033 95.8708C71.7673 96.7261 71.6333 97.6372 71.8013 98.604C71.9766 99.6129 72.4256 100.39 73.1484 100.936C73.8712 101.481 74.6995 101.825 75.6334 101.966C76.592 102.124 77.5021 102.128 78.3639 101.978C78.9734 101.872 79.5528 101.718 80.102 101.514C80.6723 101.306 81.2265 101.069 81.7648 100.803C82.9775 100.18 84.1305 99.2764 85.2235 98.0904C86.3166 96.9044 87.3193 95.5718 88.2315 94.0924C89.1473 92.6341 89.9402 91.1538 90.6103 89.6516C91.3013 88.1457 91.8407 86.7636 92.2283 85.5053C92.8801 83.4 93.5091 81.2878 94.1153 79.1687C94.7388 77.025 95.3641 74.8918 95.9913 72.769C96.005 72.7233 96.0512 72.5529 96.1298 72.2578C96.2295 71.959 96.3342 71.6268 96.4439 71.2613C96.5499 70.8748 96.6441 70.5444 96.7264 70.2703C96.8086 69.9962 96.8585 69.8468 96.8758 69.8221C97.2021 69.3323 97.5563 69.0651 97.9383 69.0204C98.3376 68.951 98.7735 68.8427 99.246 68.6957C99.638 68.5842 99.8546 68.46 99.8958 68.3229C99.9543 68.1612 100.047 68.0694 100.173 68.0474C100.299 68.0255 100.369 68.0566 100.384 68.1407C100.391 68.1827 100.381 68.2494 100.354 68.3408C99.9112 69.2838 99.5163 70.251 99.1689 71.2425C98.8215 72.2339 98.4618 73.2167 98.0897 74.1908C97.5567 75.7341 97.0114 77.2688 96.4538 78.7948C95.8962 80.3208 95.3404 81.8573 94.7864 83.4044C94.4664 84.3044 94.1465 85.2045 93.8265 86.1046C93.5065 87.0046 93.1637 87.8979 92.7981 88.7842C92.0119 90.7397 90.9763 92.6302 89.6912 94.4559C88.4308 96.2989 86.9498 97.9312 85.248 99.3529C83.5673 100.771 81.6948 101.833 79.6304 102.538C78.9377 102.788 78.2235 102.977 77.4878 103.105ZM91.8188 83.3354C91.7557 83.3464 91.7169 83.3098 91.7023 83.2258C91.6913 83.1627 91.6803 83.0996 91.6694 83.0366C91.6794 82.9699 91.6895 82.9032 91.6996 82.8365C91.7701 81.8715 91.7286 80.9476 91.5752 80.0648C91.546 79.8967 91.4971 79.6778 91.4286 79.4082C91.3601 79.1386 91.2532 78.8974 91.108 78.6844C90.9837 78.4679 90.806 78.3796 90.5748 78.4198C90.3646 78.4563 90.239 78.5431 90.1978 78.6802C90.174 78.7926 90.1201 78.8561 90.036 78.8707C89.994 78.878 89.9693 78.8607 89.962 78.8186L89.9716 78.687C90.085 78.3425 90.2687 78.0291 90.5228 77.7468C90.7979 77.4608 91.1141 77.2868 91.4714 77.2247C91.9128 77.148 92.2276 77.2773 92.4158 77.6127C92.6214 77.9234 92.7552 78.2575 92.8173 78.6148C92.9305 79.2663 92.8897 79.9663 92.695 80.7147C92.5213 81.4594 92.3384 82.1516 92.1464 82.7913C92.1364 82.858 92.0898 82.9635 92.0066 83.1079C91.9444 83.2486 91.8818 83.3245 91.8188 83.3354Z" fill="white"/>
</g>
<defs>
<filter id="filter0_d_0_1" x="0" y="0" width="141" height="143" filterUnits="userSpaceOnUse" color-interpolation-filters="sRGB">
<feFlood flood-opacity="0" result="BackgroundImageFix"/>
<feColorMatrix in="SourceAlpha" type="matrix" values="0 0 0 0 0 0 0 0 0 0 0 0 0 0 0 0 0 0 127 0" result="hardAlpha"/>
<feOffset dy="4"/>
<feGaussianBlur stdDeviation="2"/>
<feComposite in2="hardAlpha" operator="out"/>
<feColorMatrix type="matrix" values="0 0 0 0 0 0 0 0 0 0 0 0 0 0 0 0 0 0 0.25 0"/>
<feBlend mode="normal" in2="BackgroundImageFix" result="effect1_dropShadow_0_1"/>
<feBlend mode="normal" in="SourceGraphic" in2="effect1_dropShadow_0_1" result="shape"/>
</filter>
<filter id="filter1_d_0_1" x="16" y="9" width="141" height="143" filterUnits="userSpaceOnUse" color-interpolation-filters="sRGB">
<feFlood flood-opacity="0" result="BackgroundImageFix"/>
<feColorMatrix in="SourceAlpha" type="matrix" values="0 0 0 0 0 0 0 0 0 0 0 0 0 0 0 0 0 0 127 0" result="hardAlpha"/>
<feOffset dy="4"/>
<feGaussianBlur stdDeviation="2"/>
<feComposite in2="hardAlpha" operator="out"/>
<feColorMatrix type="matrix" values="0 0 0 0 0 0 0 0 0 0 0 0 0 0 0 0 0 0 0.25 0"/>
<feBlend mode="normal" in2="BackgroundImageFix" result="effect1_dropShadow_0_1"/>
<feBlend mode="normal" in="SourceGraphic" in2="effect1_dropShadow_0_1" result="shape"/>
</filter>
<clipPath id="clip0_0_1">
<rect width="157" height="152" fill="white"/>
</clipPath>
</defs>
</svg>
